<svg id="visual" viewBox="0 0 900 600" width="900" height="600" xmlns="http://www.w3.org/2000/svg" xmlns:xlink="http://www.w3.org/1999/xlink" version="1.1"><path d="M0 418L21.5 418.2C43 418.3 86 418.7 128.8 397C171.7 375.3 214.3 331.7 257.2 337.8C300 344 343 400 385.8 433.5C428.7 467 471.3 478 514.2 465.7C557 453.3 600 417.7 642.8 395.7C685.7 373.7 728.3 365.3 771.2 371C814 376.7 857 396.3 878.5 406.2L900 416L900 601L878.5 601C857 601 814 601 771.2 601C728.3 601 685.7 601 642.8 601C600 601 557 601 514.2 601C471.3 601 428.7 601 385.8 601C343 601 300 601 257.2 601C214.3 601 171.7 601 128.8 601C86 601 43 601 21.5 601L0 601Z" fill="#4BF1F1" stroke-linecap="round" stroke-linejoin="miter"></path></svg>