<svg id="visual" viewBox="0 0 900 600" width="900" height="600" xmlns="http://www.w3.org/2000/svg" xmlns:xlink="http://www.w3.org/1999/xlink" version="1.1"><path d="M0 198L21.5 207.2C43 216.3 86 234.7 128.8 225C171.7 215.3 214.3 177.7 257.2 163.8C300 150 343 160 385.8 185C428.7 210 471.3 250 514.2 266.5C557 283 600 276 642.8 251.2C685.7 226.3 728.3 183.7 771.2 175.7C814 167.7 857 194.3 878.5 207.7L900 221L900 0L878.5 0C857 0 814 0 771.2 0C728.3 0 685.7 0 642.8 0C600 0 557 0 514.2 0C471.3 0 428.7 0 385.8 0C343 0 300 0 257.2 0C214.3 0 171.7 0 128.8 0C86 0 43 0 21.5 0L0 0Z" fill="#4BF1F1" stroke-linecap="round" stroke-linejoin="miter"></path></svg>